<svg width="185" height="87" viewBox="0 0 185 87" fill="none" xmlns="http://www.w3.org/2000/svg">
<circle cx="71" cy="39" r="37" stroke="#2E4053" stroke-opacity="0.5" stroke-width="4"/>
<path d="M1.42045 53.9801V48.9091H25.3125V53.9801H16.4062V78H10.3267V53.9801H1.42045ZM32.3864 78.4119C30.9943 78.4119 29.7538 78.1705 28.6648 77.6875C27.5758 77.1951 26.714 76.4706 26.0795 75.5142C25.4545 74.5483 25.142 73.3456 25.142 71.9062C25.142 70.6941 25.3646 69.6761 25.8097 68.8523C26.2547 68.0284 26.8608 67.3655 27.6278 66.8636C28.3949 66.3617 29.2661 65.983 30.2415 65.7273C31.2263 65.4716 32.2585 65.2917 33.3381 65.1875C34.607 65.0549 35.6297 64.9318 36.4062 64.8182C37.1828 64.6951 37.7462 64.5152 38.0966 64.2784C38.447 64.0417 38.6222 63.6913 38.6222 63.2273V63.142C38.6222 62.2424 38.3381 61.5464 37.7699 61.054C37.2112 60.5616 36.4157 60.3153 35.3835 60.3153C34.2945 60.3153 33.428 60.5568 32.7841 61.0398C32.1402 61.5133 31.714 62.1098 31.5057 62.8295L25.9091 62.375C26.1932 61.0492 26.7519 59.9034 27.5852 58.9375C28.4186 57.9621 29.4934 57.214 30.8097 56.6932C32.1354 56.1629 33.6695 55.8977 35.4119 55.8977C36.6241 55.8977 37.7841 56.0398 38.892 56.3239C40.0095 56.608 40.9991 57.0483 41.8608 57.6449C42.732 58.2415 43.4186 59.0085 43.9205 59.946C44.4223 60.8741 44.6733 61.9867 44.6733 63.2841V78H38.9347V74.9744H38.7642C38.4138 75.6562 37.9451 76.2576 37.358 76.7784C36.7708 77.2898 36.0653 77.6922 35.2415 77.9858C34.4176 78.2699 33.4659 78.4119 32.3864 78.4119ZM34.1193 74.2358C35.0095 74.2358 35.7955 74.0606 36.4773 73.7102C37.1591 73.3504 37.6941 72.8674 38.0824 72.2614C38.4706 71.6553 38.6648 70.9687 38.6648 70.2017V67.8864C38.4754 68.0095 38.215 68.1231 37.8835 68.2273C37.5616 68.322 37.197 68.4119 36.7898 68.4972C36.3826 68.5729 35.9754 68.6439 35.5682 68.7102C35.161 68.767 34.7917 68.8191 34.4602 68.8665C33.75 68.9706 33.1297 69.1364 32.5994 69.3636C32.0691 69.5909 31.6572 69.8987 31.3636 70.2869C31.0701 70.6657 30.9233 71.1392 30.9233 71.7074C30.9233 72.5312 31.2216 73.161 31.8182 73.5966C32.4242 74.0227 33.1913 74.2358 34.1193 74.2358ZM67.5213 62.4034L61.9815 62.7443C61.8868 62.2708 61.6832 61.8447 61.3707 61.4659C61.0582 61.0777 60.6463 60.7699 60.1349 60.5426C59.633 60.3059 59.0317 60.1875 58.331 60.1875C57.3935 60.1875 56.6027 60.3864 55.9588 60.7841C55.3149 61.1723 54.9929 61.6932 54.9929 62.3466C54.9929 62.8674 55.2012 63.3078 55.6179 63.6676C56.0346 64.0275 56.7495 64.3163 57.7628 64.5341L61.7116 65.3295C63.8329 65.7652 65.4143 66.4659 66.456 67.4318C67.4976 68.3977 68.0185 69.6667 68.0185 71.2386C68.0185 72.6686 67.5971 73.9233 66.7543 75.0028C65.9209 76.0824 64.7751 76.9252 63.3168 77.5312C61.8679 78.1278 60.1965 78.4261 58.3026 78.4261C55.4143 78.4261 53.1132 77.8248 51.3991 76.6222C49.6946 75.41 48.6955 73.7623 48.402 71.679L54.3537 71.3665C54.5336 72.2472 54.9692 72.9195 55.6605 73.3835C56.3518 73.8381 57.2372 74.0653 58.3168 74.0653C59.3774 74.0653 60.2296 73.8617 60.8736 73.4545C61.527 73.0379 61.8584 72.5028 61.8679 71.8494C61.8584 71.3002 61.6264 70.8504 61.1719 70.5C60.7173 70.1402 60.0166 69.8655 59.0696 69.6761L55.2912 68.9233C53.1605 68.4972 51.5743 67.7585 50.5327 66.7074C49.5005 65.6562 48.9844 64.3163 48.9844 62.6875C48.9844 61.286 49.3632 60.0786 50.1207 59.0653C50.8878 58.0521 51.9626 57.2708 53.3452 56.7216C54.7372 56.1723 56.366 55.8977 58.2315 55.8977C60.9872 55.8977 63.1558 56.4801 64.7372 57.6449C66.3281 58.8097 67.2562 60.3958 67.5213 62.4034ZM77.3118 71.7216L77.326 64.4631H78.2067L85.1953 56.1818H92.1413L82.7521 67.1477H81.3175L77.3118 71.7216ZM71.8288 78V48.9091H77.88V78H71.8288ZM85.4652 78L79.0447 68.4972L83.0788 64.2216L92.5533 78H85.4652ZM124.56 48.9091V78H118.509V48.9091H124.56ZM139.265 78.4261C137.058 78.4261 135.15 77.9574 133.54 77.0199C131.94 76.0729 130.704 74.7566 129.833 73.071C128.962 71.3759 128.526 69.411 128.526 67.1761C128.526 64.9223 128.962 62.9527 129.833 61.267C130.704 59.572 131.94 58.2557 133.54 57.3182C135.15 56.3712 137.058 55.8977 139.265 55.8977C141.471 55.8977 143.375 56.3712 144.975 57.3182C146.585 58.2557 147.826 59.572 148.697 61.267C149.568 62.9527 150.004 64.9223 150.004 67.1761C150.004 69.411 149.568 71.3759 148.697 73.071C147.826 74.7566 146.585 76.0729 144.975 77.0199C143.375 77.9574 141.471 78.4261 139.265 78.4261ZM139.293 73.7386C140.297 73.7386 141.135 73.4545 141.808 72.8864C142.48 72.3087 142.987 71.5227 143.327 70.5284C143.678 69.5341 143.853 68.4025 143.853 67.1335C143.853 65.8646 143.678 64.733 143.327 63.7386C142.987 62.7443 142.48 61.9583 141.808 61.3807C141.135 60.803 140.297 60.5142 139.293 60.5142C138.28 60.5142 137.428 60.803 136.737 61.3807C136.055 61.9583 135.539 62.7443 135.188 63.7386C134.847 64.733 134.677 65.8646 134.677 67.1335C134.677 68.4025 134.847 69.5341 135.188 70.5284C135.539 71.5227 136.055 72.3087 136.737 72.8864C137.428 73.4545 138.28 73.7386 139.293 73.7386ZM157.695 78L151.758 56.1818H157.88L161.261 70.8409H161.46L164.982 56.1818H170.991L174.57 70.7557H174.755L178.079 56.1818H184.187L178.263 78H171.857L168.107 64.2784H167.837L164.087 78H157.695Z" fill="#2E4053"/>
<path d="M95.2237 78V48.9091H114.485V53.9801H101.374V60.9119H113.207V65.983H101.374V78H95.2237Z" fill="#3498DB"/>
<circle cx="71" cy="39" r="2" fill="#3498DB" fill-opacity="0.7"/>
<g filter="url(#filter0_d_2_10)">
<rect x="71" y="37" width="30" height="4" rx="2" fill="#3498DB"/>
</g>
<g filter="url(#filter1_d_2_10)">
<rect x="69" y="39" width="20" height="4" rx="2" transform="rotate(-90 69 39)" fill="#3498DB"/>
</g>
<defs>
<filter id="filter0_d_2_10" x="69" y="37" width="34" height="8" filterUnits="userSpaceOnUse" color-interpolation-filters="sRGB">
<feFlood flood-opacity="0" result="BackgroundImageFix"/>
<feColorMatrix in="SourceAlpha" type="matrix" values="0 0 0 0 0 0 0 0 0 0 0 0 0 0 0 0 0 0 127 0" result="hardAlpha"/>
<feOffset dy="2"/>
<feGaussianBlur stdDeviation="1"/>
<feComposite in2="hardAlpha" operator="out"/>
<feColorMatrix type="matrix" values="0 0 0 0 0.203922 0 0 0 0 0.596078 0 0 0 0 0.858824 0 0 0 0.25 0"/>
<feBlend mode="normal" in2="BackgroundImageFix" result="effect1_dropShadow_2_10"/>
<feBlend mode="normal" in="SourceGraphic" in2="effect1_dropShadow_2_10" result="shape"/>
</filter>
<filter id="filter1_d_2_10" x="67" y="19" width="8" height="24" filterUnits="userSpaceOnUse" color-interpolation-filters="sRGB">
<feFlood flood-opacity="0" result="BackgroundImageFix"/>
<feColorMatrix in="SourceAlpha" type="matrix" values="0 0 0 0 0 0 0 0 0 0 0 0 0 0 0 0 0 0 127 0" result="hardAlpha"/>
<feOffset dy="2"/>
<feGaussianBlur stdDeviation="1"/>
<feComposite in2="hardAlpha" operator="out"/>
<feColorMatrix type="matrix" values="0 0 0 0 0.203922 0 0 0 0 0.596078 0 0 0 0 0.858824 0 0 0 0.25 0"/>
<feBlend mode="normal" in2="BackgroundImageFix" result="effect1_dropShadow_2_10"/>
<feBlend mode="normal" in="SourceGraphic" in2="effect1_dropShadow_2_10" result="shape"/>
</filter>
</defs>
</svg>
